<?xml version="1.0" encoding="UTF-8"?>
<!DOCTYPE svg PUBLIC "-//W3C//DTD SVG 1.1//EN" "http://www.w3.org/Graphics/SVG/1.1/DTD/svg11.dtd">
<!-- Creator: CorelDRAW -->
<svg xmlns="http://www.w3.org/2000/svg" xml:space="preserve" width="5.58713in" height="2.7224in" version="1.1" style="shape-rendering:geometricPrecision; text-rendering:geometricPrecision; image-rendering:optimizeQuality; fill-rule:evenodd; clip-rule:evenodd"
viewBox="0 0 1928 939.44"
 xmlns:xlink="http://www.w3.org/1999/xlink"
 xmlns:xodm="http://www.corel.com/coreldraw/odm/2003">
 <defs>
  <style type="text/css">
   <![CDATA[
    .fil1 {fill:#658A81}
    .fil0 {fill:#0A0A0A;fill-rule:nonzero}
   ]]>
  </style>
 </defs>
 <g id="Layer_x0020_1">
  <metadata id="CorelCorpID_0Corel-Layer"/>
  <g id="_1959834335184">
   <path class="fil0" d="M916.85 696.6l0 -331.75 -55.95 0 0 331.75 55.95 0zm849.73 4.95c50.51,0 73.78,-37.63 81.21,-69.32l0 17.83c0,34.66 20.3,46.54 46.05,46.54l34.17 0 0 -47.54 -15.35 0c-8.91,0 -12.87,-3.47 -12.87,-14.36l0 -90.61c0,-59.42 -33.67,-93.58 -93.58,-93.58 -53.48,0 -91.11,27.73 -109.93,53.48l33.18 39.61c13.86,-25.25 39.12,-44.07 71.3,-44.07 33.18,0 44.07,16.34 46.05,40.6l-80.71 34.17c-39.12,15.35 -62.88,36.15 -62.88,70.31 0,34.66 23.77,56.94 63.38,56.94zm-9.9 -65.36c0,-12.38 8.42,-20.8 29.21,-30.2l61.89 -27.73 0 25.75c0,32.68 -24.76,54.47 -61.4,54.47 -20.3,0 -29.71,-8.42 -29.71,-22.28zm-245.6 65.36c50.51,0 73.78,-37.63 81.21,-69.32l0 17.83c0,34.66 20.3,46.54 46.05,46.54l34.17 0 0 -47.54 -15.35 0c-8.91,0 -12.87,-3.47 -12.87,-14.36l0 -90.61c0,-59.42 -33.67,-93.58 -93.58,-93.58 -53.48,0 -91.11,27.73 -109.93,53.48l33.18 39.61c13.86,-25.25 39.12,-44.07 71.3,-44.07 33.18,0 44.07,16.34 46.05,40.6l-80.71 34.17c-39.12,15.35 -62.88,36.15 -62.88,70.31 0,34.66 23.77,56.94 63.38,56.94zm-9.9 -65.36c0,-12.38 8.42,-20.8 29.21,-30.2l61.89 -27.73 0 25.75c0,32.68 -24.76,54.47 -61.4,54.47 -20.3,0 -29.71,-8.42 -29.71,-22.28zm-214.36 60.41l0 -132.7c0,-40.11 25.75,-71.8 53.48,-71.8 16.34,0 22.78,10.89 22.78,24.26 0,13.86 -7.43,29.71 -15.35,37.63l56.94 0c4.46,-7.43 10.89,-24.76 10.89,-48.03 0,-35.65 -22.28,-55.46 -52.49,-55.46 -43.08,0 -67.34,34.66 -76.25,73.28l0 -68.33 -55.46 0 0 241.14 55.46 0zm-235.25 4.95c48.03,0 67.84,-32.19 75.76,-69.32l0 156.47 55.95 0 0 -333.24 -55.95 0 0 64.37c-7.92,-37.63 -29.21,-69.82 -77.24,-69.82 -57.93,0 -95.57,48.03 -95.57,125.77 0,77.74 37.63,125.77 97.05,125.77zm-40.6 -125.77c0,-54.47 26.24,-80.71 61.4,-80.71 39.12,0 54.96,26.24 54.96,65.86l0 29.71c0,39.61 -15.84,65.86 -54.96,65.86 -35.16,0 -61.4,-26.24 -61.4,-80.71z"/>
   <path class="fil1" d="M256.34 24.17c16.74,-17.07 47.22,-30.75 69.33,-20.82 29.9,13.42 41.67,49.41 49.56,78.85 67.5,251.61 -81.59,660.31 112.23,716.59 19.86,3.12 39.54,2.05 59.16,-3.21 105.96,-30.65 163.55,-183.44 137.07,-282.34 -32.38,-2.34 -38.97,20.83 -62.47,27.07 -2.32,0.61 -5.16,1.19 -7.79,1.39 -9.3,2.49 -17.89,2.08 -25.82,-1.36 -36.56,-16 -46.13,-53.24 -48.85,-89.14 -1.91,-25.2 0.8,-53.12 14.35,-74.04 7.46,-11.51 16.94,-16.8 30.26,-20.38 37.16,-9.99 68.17,3.95 93.06,31.2 28.21,30.89 41.06,72.97 49.82,113.86 13.63,63.65 6.11,148.06 -9.93,214.92 -13.37,55.73 -39.01,109.1 -80.57,148.4 -20.3,19.18 -45.12,32.67 -74.51,40.54 -38.26,7.3 -71.19,5.63 -98.57,-5.17 -53.59,-21.11 -91.39,-62.47 -114.11,-113.67 -28.61,-64.47 -38.78,-115.88 -37.05,-188.81 1.05,-44.15 4.56,-89.44 10.39,-136.13 157.12,-885.59 -696.8,238.78 98.01,464.85 7.72,2.8 7.65,7.95 -0.57,10.17 -4.48,1.2 -11.95,1.89 -21.84,2.28 -101.8,3.34 -199.99,-31.24 -271.04,-101.23 -251.32,-248.18 -85.75,-594.98 129.88,-813.82zm212.71 309.57c-1.46,-10.11 -2.82,-22.32 -4.06,-36.61 -1.14,-14.33 -3.22,-27.78 -6.05,-40.48 3.71,-1.62 11.49,-5.52 23.47,-12.05 12.04,-6.35 24.8,-13.16 38.35,-20.31 13.56,-7.18 26.11,-14 37.78,-20.65 11.68,-6.66 19.24,-11 22.71,-13.1 1.08,-0.69 2.01,-1.12 2.9,-1.36 1.8,-0.48 3.44,-0.05 4.88,1.02 2.3,1.73 4.44,4.37 6.54,7.9 2.1,3.49 3.86,7.25 5.31,11.25 1.38,4.02 2.31,7.17 2.89,9.36 3.37,12.54 5.39,25.15 6.2,37.81 0.8,12.65 -0.75,23.01 -4.46,31.02 -2.68,5.37 -8.01,11.33 -16.15,17.87 -8.21,6.58 -17.58,12.9 -28.24,18.97 -10.57,6.05 -21.96,11.94 -34.19,17.55 -12.23,5.59 -23.95,10.24 -35.28,13.85 -3.18,1.01 -6.08,2.02 -8.41,2.65 -2.24,0.58 -4.32,1.07 -5.93,1.2 -3.08,0.25 -5.05,-0.6 -5.84,-2.43l-0.49 -1.55c-0.46,-1.74 -0.82,-4.05 -0.9,-6.87 -0.15,-3.78 -0.51,-8.72 -1.04,-15.04z"/>
  </g>
 </g>
</svg>
